PathFileType	4	(X/Y/Z)	C:\Users\italobelli\Desktop\GitHub\PTbot_officialCBL\Personal_Results\SHRUG02_noisy1.trc
DataRate	CameraRate	NumFrames	NumMarkers	Units	OrigDataRate	OrigDataStartFrame	OrigNumFrames
112.250000	112.250000	25	9	m	112.250000	57	450
Frame#	Time		gu		centelbow		EpL		centpxt8		centijc7		ij		ts		aa		ai
			X1	Y1	Z1	X2	Y2	Z2	X3	Y3	Z3	X4	Y4	Z4	X5	Y5	Z5	X6	Y6	Z6	X7	Y7	Z7	X8	Y8	Z8	X9	Y9	Z9

57	0.49889	-0.077483	-0.012793	0.16576	-0.1092	-0.25336	0.20184	-0.087544	-0.24846	0.22522	-0.046816	-0.15316	-0.008669	-0.046816	0.031938	-0.008669	0	0	0	-0.13874	0.029134	0.056677	-0.10511	0.024997	0.17103	-0.15977	-0.082158	0.064269
58	0.5078	-0.077507	-0.012729	0.16576	-0.10928	-0.25332	0.20184	-0.087633	-0.24842	0.22522	-0.046816	-0.15316	-0.008669	-0.046816	0.031938	-0.008669	0	0	0	-0.13867	0.029333	0.056669	-0.10509	0.025168	0.17103	-0.15976	-0.081939	0.064268
59	0.5167	-0.077533	-0.012658	0.16577	-0.10939	-0.25328	0.20184	-0.087739	-0.24838	0.22523	-0.046816	-0.15316	-0.008669	-0.046816	0.031938	-0.008669	0	0	0	-0.1386	0.02955	0.056661	-0.10506	0.025352	0.17102	-0.15974	-0.081705	0.064267
60	0.52561	-0.077561	-0.01258	0.16577	-0.1095	-0.25323	0.20184	-0.087862	-0.24833	0.22524	-0.046816	-0.15316	-0.008669	-0.046816	0.031938	-0.008669	0	0	0	-0.13851	0.029783	0.056651	-0.10502	0.025548	0.17102	-0.15972	-0.081459	0.064268
61	0.53452	-0.077592	-0.012493	0.16578	-0.10963	-0.25317	0.20185	-0.088002	-0.24827	0.22525	-0.046816	-0.15316	-0.008669	-0.046816	0.031938	-0.008669	0	0	0	-0.13842	0.030031	0.056641	-0.10499	0.025757	0.17101	-0.15969	-0.081199	0.06427
62	0.54343	-0.077624	-0.0124	0.16578	-0.10978	-0.25311	0.20186	-0.088157	-0.24821	0.22527	-0.046816	-0.15316	-0.008669	-0.046816	0.031938	-0.008669	0	0	0	-0.13833	0.030295	0.056631	-0.10495	0.025978	0.17101	-0.15967	-0.080926	0.064273
63	0.55234	-0.077658	-0.012298	0.16578	-0.10994	-0.25305	0.20187	-0.088327	-0.24814	0.22529	-0.046816	-0.15316	-0.008669	-0.046816	0.031938	-0.008669	0	0	0	-0.13822	0.030573	0.05662	-0.10492	0.026211	0.171	-0.15964	-0.080641	0.064277
64	0.56125	-0.077694	-0.01219	0.16579	-0.11011	-0.25298	0.20188	-0.08851	-0.24807	0.22531	-0.046816	-0.15316	-0.008669	-0.046816	0.031938	-0.008669	0	0	0	-0.13811	0.030866	0.056608	-0.10488	0.026455	0.171	-0.15961	-0.080344	0.064283
65	0.57016	-0.077731	-0.012074	0.16579	-0.1103	-0.25291	0.2019	-0.088708	-0.248	0.22534	-0.046816	-0.15316	-0.008669	-0.046816	0.031938	-0.008669	0	0	0	-0.138	0.031171	0.056595	-0.10483	0.026712	0.17099	-0.15958	-0.080036	0.064289
66	0.57906	-0.07777	-0.011951	0.1658	-0.1105	-0.25283	0.20192	-0.088917	-0.24792	0.22537	-0.046816	-0.15316	-0.008669	-0.046816	0.031938	-0.008669	0	0	0	-0.13788	0.031489	0.056582	-0.10479	0.026979	0.17098	-0.15955	-0.079717	0.064297
67	0.58797	-0.077811	-0.011821	0.1658	-0.11071	-0.25275	0.20195	-0.089139	-0.24783	0.2254	-0.046816	-0.15316	-0.008669	-0.046816	0.031938	-0.008669	0	0	0	-0.13775	0.031819	0.056568	-0.10474	0.027257	0.17098	-0.15952	-0.079388	0.064306
68	0.59688	-0.077853	-0.011684	0.16581	-0.11093	-0.25266	0.20197	-0.089372	-0.24774	0.22544	-0.046816	-0.15316	-0.008669	-0.046816	0.031938	-0.008669	0	0	0	-0.13762	0.032161	0.056553	-0.10469	0.027547	0.17097	-0.15948	-0.079049	0.064316
69	0.60579	-0.077896	-0.011539	0.16581	-0.11116	-0.25257	0.20201	-0.089616	-0.24765	0.22548	-0.046816	-0.15316	-0.008669	-0.046816	0.031938	-0.008669	0	0	0	-0.13748	0.032514	0.056537	-0.10464	0.027846	0.17097	-0.15944	-0.0787	0.064327
70	0.6147	-0.077941	-0.011388	0.16582	-0.1114	-0.25247	0.20204	-0.089869	-0.24755	0.22552	-0.046816	-0.15316	-0.008669	-0.046816	0.031938	-0.008669	0	0	0	-0.13734	0.032876	0.056521	-0.10459	0.028156	0.17096	-0.1594	-0.078342	0.064339
71	0.62361	-0.077986	-0.011231	0.16582	-0.11164	-0.25237	0.20207	-0.090132	-0.24744	0.22557	-0.046816	-0.15316	-0.008669	-0.046816	0.031938	-0.008669	0	0	0	-0.1372	0.033248	0.056504	-0.10453	0.028476	0.17095	-0.15936	-0.077975	0.064352
72	0.63252	-0.078033	-0.011066	0.16583	-0.1119	-0.25226	0.20211	-0.090402	-0.24733	0.22561	-0.046816	-0.15316	-0.008669	-0.046816	0.031938	-0.008669	0	0	0	-0.13705	0.03363	0.056487	-0.10448	0.028806	0.17095	-0.15932	-0.0776	0.064366
73	0.64143	-0.07808	-0.010895	0.16583	-0.11216	-0.25215	0.20216	-0.090681	-0.24722	0.22566	-0.046816	-0.15316	-0.008669	-0.046816	0.031938	-0.008669	0	0	0	-0.1369	0.034019	0.056469	-0.10442	0.029145	0.17094	-0.15928	-0.077218	0.064382
74	0.65033	-0.078129	-0.010717	0.16584	-0.11243	-0.25204	0.2022	-0.090967	-0.2471	0.22572	-0.046816	-0.15316	-0.008669	-0.046816	0.031938	-0.008669	0	0	0	-0.13674	0.034416	0.05645	-0.10436	0.029494	0.17093	-0.15923	-0.076829	0.064398
75	0.65924	-0.078178	-0.010533	0.16584	-0.11271	-0.25192	0.20225	-0.091258	-0.24698	0.22577	-0.046816	-0.15316	-0.008669	-0.046816	0.031938	-0.008669	0	0	0	-0.13658	0.034821	0.05643	-0.10429	0.029852	0.17093	-0.15919	-0.076432	0.064415
76	0.66815	-0.078228	-0.010343	0.16585	-0.11299	-0.25179	0.2023	-0.091556	-0.24685	0.22583	-0.046816	-0.15316	-0.008669	-0.046816	0.031938	-0.008669	0	0	0	-0.13642	0.035231	0.05641	-0.10423	0.030219	0.17092	-0.15914	-0.07603	0.064434
77	0.67706	-0.078278	-0.010146	0.16585	-0.11327	-0.25166	0.20235	-0.091858	-0.24672	0.2259	-0.046816	-0.15316	-0.008669	-0.046816	0.031938	-0.008669	0	0	0	-0.13626	0.035648	0.056389	-0.10417	0.030594	0.17091	-0.15909	-0.075621	0.064453
78	0.68597	-0.078329	-0.0099427	0.16586	-0.11356	-0.25153	0.20241	-0.092164	-0.24658	0.22596	-0.046816	-0.15316	-0.008669	-0.046816	0.031938	-0.008669	0	0	0	-0.13609	0.03607	0.056367	-0.1041	0.030977	0.1709	-0.15904	-0.075207	0.064474
79	0.69488	-0.07838	-0.0097335	0.16586	-0.11386	-0.25139	0.20246	-0.092474	-0.24644	0.22603	-0.046816	-0.15316	-0.008669	-0.046816	0.031938	-0.008669	0	0	0	-0.13593	0.036496	0.056345	-0.10403	0.031369	0.1709	-0.15898	-0.074789	0.064496
80	0.70379	-0.078431	-0.0095182	0.16587	-0.11415	-0.25125	0.20252	-0.092787	-0.2463	0.2261	-0.046816	-0.15316	-0.008669	-0.046816	0.031938	-0.008669	0	0	0	-0.13576	0.036927	0.056322	-0.10396	0.031769	0.17089	-0.15893	-0.074365	0.064518
81	0.71269	-0.078483	-0.009297	0.16587	-0.11445	-0.25111	0.20259	-0.093101	-0.24615	0.22617	-0.046816	-0.15316	-0.008669	-0.046816	0.031938	-0.008669	0	0	0	-0.13559	0.037361	0.056298	-0.10389	0.032176	0.17088	-0.15887	-0.073938	0.064542
